<svg width="21" height="18" viewBox="0 0 21 18" fill="none" xmlns="http://www.w3.org/2000/svg">
<path d="M8.70691 8.90557H11.6935M12.938 5.12256C13.6253 5.12256 14.1824 5.65184 14.1824 6.30475C14.1824 6.95766 13.6253 7.48694 12.938 7.48694H11.6935M7.21359 7.48694H9.70245M13.1869 12.2157C13.7367 12.2157 14.1824 11.7923 14.1824 11.27C14.1824 10.7476 13.7367 10.3242 13.1869 10.3242H10.2002M6.71582 10.3242H8.20914" stroke="#5A5A5A" stroke-linecap="round" stroke-linejoin="round"/>
<path fill-rule="evenodd" clip-rule="evenodd" d="M3.6175 13.5879C3.53084 13.5989 3.44859 13.6324 3.379 13.6852C3.2737 13.765 3.2044 13.8834 3.18633 14.0143C3.16826 14.1452 3.20289 14.2779 3.28262 14.3832C3.9842 15.3093 4.8787 16.1137 5.9461 16.7303C9.3794 18.7135 13.5878 18.1681 16.3995 15.6633C16.4483 15.6197 16.4881 15.567 16.5166 15.508C16.545 15.449 16.5615 15.3851 16.5652 15.3197C16.569 15.2543 16.5598 15.1889 16.5382 15.1271C16.5166 15.0653 16.483 15.0083 16.4394 14.9595C16.3514 14.8612 16.228 14.8017 16.0962 14.7942C15.9645 14.7868 15.8351 14.8318 15.7366 14.9196C13.2395 17.144 9.50502 17.6351 6.44552 15.8678C5.49432 15.3183 4.70021 14.6042 4.077 13.7816C4.02417 13.7118 3.95389 13.6571 3.87323 13.6231C3.79257 13.5891 3.70436 13.577 3.6175 13.5879Z" fill="#5A5A5A"/>
<path fill-rule="evenodd" clip-rule="evenodd" d="M18.6027 5.8003C18.5168 5.78271 18.4278 5.78807 18.3447 5.81585C18.2826 5.83653 18.2251 5.86926 18.1756 5.91216C18.1261 5.95506 18.0855 6.00729 18.0563 6.06588C18.027 6.12447 18.0095 6.18826 18.0049 6.25359C18.0003 6.31893 18.0086 6.38453 18.0293 6.44666C18.6953 8.44242 18.5728 10.6861 17.527 12.6789L17.2232 10.6852C17.2033 10.5546 17.1323 10.4372 17.0259 10.3589C16.9195 10.2806 16.7863 10.2478 16.6557 10.2676C16.5251 10.2875 16.4077 10.3585 16.3294 10.4649C16.2511 10.5713 16.2182 10.7045 16.2381 10.8351L16.7482 14.1887C16.7594 14.2627 16.7871 14.3332 16.8293 14.395C16.8715 14.4568 16.927 14.5083 16.9918 14.5457C17.0566 14.5831 17.129 14.6055 17.2036 14.6111C17.2782 14.6167 17.3531 14.6054 17.4228 14.5781L20.5808 13.3438C20.704 13.2957 20.803 13.2008 20.8561 13.0797C20.9093 12.9587 20.9121 12.8215 20.8641 12.6983C20.8161 12.5752 20.7211 12.4762 20.6001 12.423C20.479 12.3699 20.3418 12.367 20.2187 12.4151L18.4236 13.1169C19.5849 10.8861 19.7213 8.3661 18.9755 6.13125C18.9479 6.04821 18.8989 5.9739 18.8335 5.9158C18.768 5.85769 18.6884 5.81788 18.6027 5.8003Z" fill="#5A5A5A"/>
<path fill-rule="evenodd" clip-rule="evenodd" d="M3.62041 3.32264C3.57067 3.32636 3.52178 3.33752 3.47535 3.35574L0.317336 4.59011C0.194184 4.63814 0.095153 4.73312 0.0420269 4.85416C-0.0110991 4.97519 -0.0139686 5.11238 0.0340488 5.23553C0.0578244 5.29663 0.0934159 5.35243 0.138791 5.39975C0.184166 5.44706 0.23843 5.48496 0.298474 5.51127C0.358519 5.53758 0.423164 5.55179 0.488709 5.55308C0.554254 5.55438 0.619414 5.54274 0.68045 5.51881L2.47557 4.81694C1.20839 7.25102 1.16146 10.0287 2.14848 12.4062C2.17353 12.4668 2.21029 12.5218 2.25665 12.5682C2.30301 12.6145 2.35806 12.6513 2.41865 12.6763C2.47924 12.7014 2.54417 12.7142 2.60973 12.7142C2.6753 12.7141 2.7402 12.701 2.80072 12.6758C2.86122 12.6507 2.91617 12.6139 2.96243 12.5675C3.00868 12.5211 3.04534 12.466 3.0703 12.4054C3.09525 12.3448 3.10801 12.2799 3.10786 12.2144C3.10771 12.1489 3.09464 12.0841 3.06941 12.0236C2.18846 9.90165 2.2305 7.42869 3.37119 5.255L3.67492 7.24869C3.69484 7.37931 3.76582 7.49666 3.87224 7.57497C3.97867 7.65328 4.11183 7.68614 4.24247 7.66631C4.37309 7.64639 4.49046 7.57541 4.56877 7.46898C4.64709 7.36256 4.67993 7.22941 4.6601 7.09877L4.14999 3.74513C4.13118 3.62095 4.06619 3.50842 3.968 3.43009C3.86982 3.35176 3.74567 3.31339 3.62041 3.32264Z" fill="#5A5A5A"/>
<path fill-rule="evenodd" clip-rule="evenodd" d="M10.5294 0.00015099C10.1821 -0.0018427 9.83622 0.015902 9.49261 0.0536924C7.66005 0.255274 5.90444 1.01792 4.49858 2.2703C4.44974 2.31389 4.40996 2.36667 4.38152 2.42564C4.35308 2.4846 4.33654 2.54858 4.33283 2.61394C4.32912 2.6793 4.33832 2.74475 4.35991 2.80656C4.3815 2.86836 4.41506 2.9253 4.45866 2.97413C4.50225 3.02297 4.55503 3.06275 4.614 3.09119C4.67296 3.11963 4.73695 3.13617 4.80231 3.13988C4.86767 3.14359 4.93312 3.13438 4.99492 3.11279C5.05672 3.0912 5.11367 3.05766 5.1625 3.01406C7.65953 0.789623 11.394 0.298587 14.4535 2.06589C15.5493 2.69885 16.4359 3.55045 17.0937 4.53463C17.1671 4.64446 17.2812 4.72061 17.4108 4.74635C17.5404 4.77209 17.675 4.74531 17.7848 4.67189C17.8947 4.59842 17.9708 4.48433 17.9966 4.35472C18.0223 4.22511 17.9955 4.09059 17.9221 3.98072C17.1818 2.87307 16.1816 1.91368 14.952 1.20339C13.5572 0.397703 12.0342 0.00938674 10.5294 0.00015099Z" fill="#5A5A5A"/>
</svg>
