<svg width="16" height="19" viewBox="0 0 16 19" fill="none" xmlns="http://www.w3.org/2000/svg">
<path d="M14.6433 1.45667C12.2667 1.30333 9.96667 0.766667 7.66667 0C5.44333 0.766667 3.14333 1.30333 0.69 1.45667C0.306667 1.53333 0 1.84 0 2.22333V10.7333C0 13.0333 1.30333 15.18 3.37333 16.2533L7.28333 18.2467C7.36 18.3233 7.51333 18.3233 7.59 18.3233C7.74333 18.3233 7.82 18.3233 7.89667 18.2467L11.8067 16.2533C13.8767 15.18 15.18 13.11 15.18 10.7333V2.22333C15.3333 1.84 15.0267 1.53333 14.6433 1.45667ZM11.27 14.8733L7.66667 16.7133V9.2H1.53333V2.99C3.60333 2.76 5.67333 2.3 7.66667 1.68667V9.2H13.8V10.81C13.8 12.4967 12.8033 14.1067 11.27 14.8733Z" fill="#5A5A5A"/>
</svg>
