<svg width="16" height="16" viewBox="0 0 16 16" fill="none" xmlns="http://www.w3.org/2000/svg">
<path d="M14.1132 6.86585V5.33662L12.2947 5.04C12.1864 4.60985 12.0178 4.20492 11.7944 3.83323L12.8547 2.32185L11.7741 1.24185L10.2824 2.31446C9.91072 2.08923 9.50272 1.91692 9.06949 1.80985L8.75195 0H7.22333L6.92918 1.80431C6.49472 1.91077 6.08549 2.08 5.71256 2.304L4.22518 1.24185L3.14456 2.32185L4.19072 3.81785C3.96426 4.19262 3.79256 4.60123 3.68303 5.03815L1.88672 5.33662V6.86523L3.68118 7.18277C3.78949 7.61969 3.9618 8.02892 4.18826 8.40431L3.12795 9.88677L4.20856 10.968L5.70641 9.91938C6.08056 10.144 6.48856 10.3145 6.92303 10.4209L7.22333 12.2265H8.75195L9.07256 10.4166C9.50395 10.3071 9.91133 10.1354 10.283 9.90954L11.7913 10.9686L12.8713 9.88738L11.795 8.39262C12.0178 8.02092 12.187 7.61538 12.2941 7.184L14.1132 6.86585ZM7.99995 8.24492C6.82272 8.24492 5.86826 7.29108 5.86826 6.11323C5.86826 4.93662 6.82272 3.98215 7.99995 3.98215C9.17718 3.98215 10.131 4.93662 10.131 6.11323C10.1316 7.29108 9.17718 8.24492 7.99995 8.24492Z" fill="#5A5A5A"/>
<path d="M14.7692 11.6517V14.1133C14.7692 14.4523 14.4935 14.7287 14.1538 14.7287H1.84615C1.50646 14.7287 1.23077 14.4523 1.23077 14.1133V11.6517H0V14.1133C0 15.1323 0.827077 15.9594 1.84615 15.9594H14.1538C15.1729 15.9594 16 15.1323 16 14.1133V11.6517H14.7692Z" fill="#5A5A5A"/>
</svg>
