<svg width="18" height="18" viewBox="0 0 18 18" fill="none" xmlns="http://www.w3.org/2000/svg">
<path d="M17.2159 5.73438L14.891 6.8352C15.8219 8.84651 15.5357 11.2811 14.0248 13.0295L12.7583 11.7629V16.1699H17.1653L15.8536 14.8582C18.1512 12.3202 18.6029 8.70144 17.2159 5.73438Z" fill="#5A5A5A"/>
<path d="M12.2657 17.2149L11.1638 14.891C9.15338 15.8227 6.71779 15.5358 4.96956 14.0249L6.2361 12.7583H1.8291V17.1653L3.14083 15.8536C5.67906 18.151 9.29782 18.6027 12.2657 17.2149Z" fill="#5A5A5A"/>
<path d="M3.97461 4.96956L5.24115 6.2361V1.8291H0.833974L2.14553 3.14065C-0.150911 5.67991 -0.60261 9.29864 0.784332 12.2657L3.10837 11.1639C2.17673 9.15338 2.4637 6.71783 3.97461 4.96956Z" fill="#5A5A5A"/>
<path d="M16.17 5.24094V0.83394L14.8584 2.14549C12.3192 -0.150909 8.70046 -0.602608 5.7334 0.784334L6.83508 3.10823C8.84643 2.17741 11.2811 2.46353 13.0294 3.97443L11.7628 5.24098H16.17V5.24094Z" fill="#5A5A5A"/>
<path d="M8.99938 12.5202C10.9439 12.5202 12.5202 10.9439 12.5202 8.99938C12.5202 7.05486 10.9439 5.47852 8.99938 5.47852C7.05486 5.47852 5.47852 7.05486 5.47852 8.99938C5.47852 10.9439 7.05486 12.5202 8.99938 12.5202Z" fill="#5A5A5A"/>
</svg>
