<svg width="24" height="23" viewBox="0 0 24 23" fill="none" xmlns="http://www.w3.org/2000/svg">
<ellipse cx="11.7737" cy="11.4997" rx="11.7737" ry="11.4997" fill="#212121"/>
<path fill-rule="evenodd" clip-rule="evenodd" d="M9.05429 16.7118V9.67925H6.91919V16.7118H9.05429V16.7118ZM7.98696 8.71943C8.73128 8.71943 9.19493 8.17896 9.19493 7.50412C9.18086 6.81428 8.73128 6.28906 8.00092 6.28906C7.27044 6.28908 6.79297 6.8143 6.79297 7.50414C6.79297 8.17898 7.25637 8.71945 7.97291 8.71945L7.98696 8.71943ZM10.236 16.7118C10.236 16.7118 10.264 10.3391 10.236 9.67927H12.3714V10.6991H12.3572C12.638 10.2192 13.1439 9.51413 14.2957 9.51413C15.7008 9.51413 16.7541 10.5193 16.7541 12.6794V16.7118H14.619V12.9496C14.619 12.0043 14.3101 11.3592 13.5372 11.3592C12.9474 11.3592 12.596 11.7941 12.4416 12.2145C12.3851 12.3641 12.3714 12.5743 12.3714 12.7844V16.7118H10.236Z" fill="#EDF2F9"/>
</svg>
