<svg width="18" height="17" viewBox="0 0 18 17" fill="none" xmlns="http://www.w3.org/2000/svg">
<path d="M17.5322 16.3475H0.297144C0.118851 16.3475 0 16.2286 0 16.0503C0 15.872 0.118851 15.7532 0.297144 15.7532H17.5322C17.7105 15.7532 17.8293 15.872 17.8293 16.0503C17.8293 16.2286 17.7105 16.3475 17.5322 16.3475Z" fill="#5A5A5A"/>
<path d="M0.891602 11.8899H3.86315V16.0501H0.891602V11.8899Z" fill="#C9C9C9"/>
<path d="M4.16011 16.3475H0.594238V11.593H4.16011V16.3475ZM1.18853 15.7532H3.56578V12.1873H1.18853V15.7532Z" fill="#5A5A5A"/>
<path d="M5.34863 9.21558H8.32018V16.0501H5.34863V9.21558Z" fill="#C9C9C9"/>
<path d="M8.61763 16.3474H5.05176V8.91846H8.61763V16.3474ZM5.64605 15.7531H8.0233V9.51278H5.64605V15.7531Z" fill="#5A5A5A"/>
<path d="M9.80566 6.83862H12.7772V16.0504H9.80566V6.83862Z" fill="#C9C9C9"/>
<path d="M13.0747 16.3474H9.50879V6.54126H13.0747V16.3474ZM10.1031 15.7531H12.4803V7.13555H10.1031V15.7531Z" fill="#5A5A5A"/>
<path d="M14.2637 4.46118H17.2352V16.0503H14.2637V4.46118Z" fill="#C9C9C9"/>
<path d="M17.5317 16.3475H13.9658V4.16406H17.5317V16.3475ZM14.5601 15.7531H16.9374V4.75839H14.5601V15.7531Z" fill="#5A5A5A"/>
<path d="M2.37719 7.52189C2.28805 7.52189 2.1692 7.46244 2.10975 7.3733C2.02061 7.22471 2.08005 7.04641 2.2286 6.95727L13.0154 0.746735L11.381 0.598146C11.2324 0.568442 11.0839 0.449556 11.1136 0.271263C11.1433 0.122673 11.2622 -0.0258816 11.4405 0.00382238L13.9663 0.241559C13.996 0.241559 13.996 0.241559 14.0257 0.241559C14.0555 0.241559 14.0852 0.271263 14.1149 0.271263L14.1446 0.300967C14.1743 0.33067 14.1743 0.33067 14.204 0.360409C14.204 0.390113 14.2337 0.419852 14.2337 0.449556C14.2337 0.47926 14.2337 0.47926 14.2337 0.508999C14.2337 0.538703 14.2337 0.568442 14.2337 0.598146C14.2337 0.62785 14.2337 0.627849 14.204 0.657588L13.1342 2.9754C13.0748 3.12399 12.8965 3.1834 12.748 3.12399C12.5994 3.06455 12.54 2.88626 12.5994 2.7377L13.2828 1.25191L2.52578 7.49218C2.49605 7.52189 2.4366 7.52189 2.37719 7.52189Z" fill="#5A5A5A"/>
</svg>
