<svg width="18" height="18" viewBox="0 0 18 18" fill="none" xmlns="http://www.w3.org/2000/svg">
<path d="M15.1966 2.78943H2.05975C1.25361 2.78943 0.600098 3.44294 0.600098 4.24908V15.1965C0.600098 16.0026 1.25361 16.6561 2.05975 16.6561H15.1966C16.0027 16.6561 16.6563 16.0026 16.6563 15.1965V4.24908C16.6563 3.44294 16.0027 2.78943 15.1966 2.78943Z" stroke="#5A5A5A" stroke-width="1.2" stroke-linecap="round" stroke-linejoin="round"/>
<path d="M16.6563 7.16846H0.600098" stroke="#5A5A5A" stroke-width="1.2" stroke-linecap="round" stroke-linejoin="round"/>
<path d="M13.7368 10.0876H3.51929" stroke="#5A5A5A" stroke-width="1.2" stroke-linecap="round" stroke-linejoin="round"/>
<path d="M5.70898 10.0876V12.2771C5.70898 13.0833 6.36249 13.7368 7.16863 13.7368H16.6564" stroke="#5A5A5A" stroke-width="1.2" stroke-linecap="round" stroke-linejoin="round"/>
<path d="M15.1966 2.78945V1.3298C15.1966 0.926733 14.8699 0.599976 14.4668 0.599976H13.0072C12.6041 0.599976 12.2773 0.926733 12.2773 1.3298V2.78945" stroke="#5A5A5A" stroke-width="1.2" stroke-linecap="round" stroke-linejoin="round"/>
<path d="M10.0878 2.78945V1.3298C10.0878 0.926733 9.76101 0.599976 9.35793 0.599976H7.89828C7.4952 0.599976 7.16846 0.926733 7.16846 1.3298V2.78945" stroke="#5A5A5A" stroke-width="1.2" stroke-linecap="round" stroke-linejoin="round"/>
<path d="M4.97911 2.78945V1.3298C4.97911 0.926733 4.65236 0.599976 4.24929 0.599976H2.78964C2.38657 0.599976 2.05981 0.926733 2.05981 1.3298V2.78945" stroke="#5A5A5A" stroke-width="1.2" stroke-linecap="round" stroke-linejoin="round"/>
</svg>
