<svg width="18" height="16" viewBox="0 0 18 16" fill="none" xmlns="http://www.w3.org/2000/svg">
<mask id="mask0_675_1523" style="mask-type:luminance" maskUnits="userSpaceOnUse" x="0" y="0" width="18" height="16">
<path d="M0.132568 0.00354004H17.7224V15.4704H0.132568V0.00354004Z" fill="white"/>
</mask>
<g mask="url(#mask0_675_1523)">
<path d="M17.4384 14.9546H16.7284L16.7276 9.28841C16.7276 9.20841 16.6862 9.12954 16.6093 9.07937L16.0012 8.68424V5.62216C16.0012 5.48007 15.8748 5.36464 15.7186 5.36464H14.3467C14.1905 5.36464 14.0638 5.48007 14.0638 5.62216V7.42498L13.0032 6.73559C12.9077 6.67107 12.7736 6.66641 12.6716 6.7328L10.8819 7.89583L9.0972 6.73559C9.0017 6.67107 8.86766 6.66641 8.76559 6.7328L7.58568 7.49957V1.62343C7.58568 1.48134 7.45902 1.3661 7.30305 1.3661H6.40105V0.261059C6.40105 0.11878 6.27439 0.00354004 6.11822 0.00354004H2.08701C1.93104 0.00354004 1.80438 0.11878 1.80438 0.261059V1.3661H0.903202C0.747028 1.3661 0.620367 1.48134 0.620367 1.62343V14.9546H0.419104C0.263135 14.9546 0.136475 15.07 0.136475 15.2121C0.136475 15.3542 0.263135 15.4696 0.419104 15.4696H17.438C17.5939 15.4696 17.7206 15.3542 17.7206 15.2121C17.721 15.07 17.5945 14.9546 17.4384 14.9546ZM14.6293 5.8795H15.436V8.3167L14.6293 7.79215V5.8795ZM12.8351 7.25697L14.1655 8.12128C14.1759 8.12929 14.187 8.13657 14.1985 8.14291L15.537 9.01299C15.5477 9.02101 15.5585 9.02828 15.5704 9.03462L16.1631 9.41969V14.9542H15.2913V11.6915C15.2913 11.5494 15.1646 11.4342 15.0086 11.4342H12.822V10.7037C12.829 10.7037 12.8362 10.7047 12.8431 10.7047C13.1337 10.7047 13.3979 10.5969 13.5891 10.4227L13.5904 10.4216C13.7816 10.2474 13.8999 10.0071 13.8999 9.7421C13.8999 9.47656 13.7816 9.23564 13.5904 9.06185H13.5887C13.3975 8.88768 13.1337 8.7799 12.8427 8.7799C12.7292 8.7799 12.6175 8.79761 12.5107 8.82969C12.4685 8.84237 12.4285 8.85803 12.3894 8.87481L11.3673 8.2106L12.8351 7.25697ZM14.726 13.1947H12.822V12.851H14.726V13.1947ZM12.822 13.7095H14.726V14.053H12.822V13.7095ZM14.726 12.3365H12.822V11.9498H14.726V12.3365ZM12.822 9.29606C12.829 9.29568 12.8362 9.29531 12.8431 9.29531C12.9794 9.29531 13.1024 9.34529 13.1903 9.42621C13.2793 9.50714 13.3342 9.61921 13.3342 9.74247C13.3342 9.86666 13.2793 9.97873 13.1907 10.0597C13.102 10.14 12.979 10.1902 12.8427 10.1902C12.8355 10.1902 12.8286 10.1896 12.8216 10.1893L12.822 9.29606ZM12.822 14.5678H14.726V14.9546H12.822V14.5678ZM1.18583 1.88095H2.08742C2.24359 1.88095 2.37005 1.76571 2.37005 1.62343V0.518392H5.836V1.62343C5.836 1.76571 5.96266 1.88095 6.11863 1.88095H7.02042V7.86674L5.48696 8.86325H2.1819C2.02593 8.86325 1.89927 8.97849 1.89927 9.12077C1.89927 9.26286 2.02593 9.3781 2.1819 9.3781H5.03504V10.1005H2.1819C2.02593 10.1005 1.89927 10.2157 1.89927 10.3578C1.89927 10.4999 2.02593 10.6154 2.1819 10.6154H5.03504V11.3376H2.1819C2.02593 11.3376 1.89927 11.453 1.89927 11.5951C1.89927 11.7372 2.02593 11.8524 2.1819 11.8524H5.03504V12.5748H2.1819C2.02593 12.5748 1.89927 12.6901 1.89927 12.8321C1.89927 12.9744 2.02593 13.0897 2.1819 13.0897H5.03504V13.8121H2.1819C2.02593 13.8121 1.89927 13.9273 1.89927 14.0694C1.89927 14.2115 2.02593 14.3269 2.1819 14.3269H5.03504V14.9551H1.18583V1.88095ZM10.7448 13.1947H7.11265V12.851H10.7448V13.1947ZM7.11265 13.7095H10.7448V14.053H7.11265V13.7095ZM10.7448 12.3365H7.11265V11.9498H10.7448V12.3365ZM7.11265 14.5678H10.7448V14.9546H7.11265V14.5678ZM11.3101 14.9546V11.6919C11.3101 11.5498 11.1836 11.4345 11.0274 11.4345H6.83002C6.67405 11.4345 6.54739 11.5498 6.54739 11.6919V14.9546H5.60051V9.42025L7.45164 8.21694C7.46271 8.2106 7.47357 8.20388 7.4832 8.19624L8.92873 7.25697L10.711 8.41516C10.7114 8.41553 10.7118 8.41553 10.7118 8.41609L12.2565 9.42025V11.6919V11.6924V11.6928V12.5936V12.594V12.5944V13.452V13.4524V13.4529V14.3105V14.3109V14.3113V14.9551H11.3101V14.9546ZM9.67476 9.06259C9.48354 8.88843 9.21976 8.78083 8.92873 8.78083C8.63729 8.78083 8.3727 8.88843 8.18189 9.06259C7.99066 9.23676 7.87241 9.4775 7.87241 9.74285C7.87241 9.99999 7.98411 10.2338 8.16508 10.4067L8.18189 10.4231C8.37311 10.5973 8.63729 10.705 8.92873 10.705C9.21935 10.705 9.48354 10.5973 9.67476 10.4231L9.67599 10.422C9.86741 10.2478 9.98567 10.0075 9.98567 9.74247C9.98567 9.47694 9.86741 9.23601 9.67599 9.06222H9.67476V9.06259ZM9.27695 10.06C9.1882 10.1404 9.06503 10.1906 8.92873 10.1906C8.79285 10.1906 8.67029 10.1404 8.58154 10.0597L8.56966 10.0492C8.48788 9.96904 8.43767 9.86144 8.43767 9.74285C8.43767 9.61921 8.49259 9.50752 8.58154 9.42659C8.67029 9.34566 8.79326 9.29568 8.92873 9.29568C9.06503 9.29568 9.1882 9.34566 9.27654 9.42659C9.36487 9.50789 9.42021 9.61959 9.42021 9.74322C9.42021 9.86704 9.36528 9.97911 9.27695 10.06ZM14.5744 3.30318C14.4995 3.19186 14.4547 3.06767 14.4547 2.92315C14.4547 2.77733 14.503 2.6509 14.5791 2.5392C14.6447 2.44224 14.7268 2.36261 14.8117 2.29418C14.9484 2.18322 15.1585 2.19404 15.2808 2.31898C15.4026 2.44354 15.3907 2.63486 15.2536 2.74619C15.2083 2.78292 15.1673 2.82096 15.1431 2.85677C15.1292 2.87746 15.1199 2.89984 15.1199 2.92352C15.1199 2.94795 15.1277 2.96958 15.141 2.98879C15.1642 3.02366 15.2052 3.06133 15.2536 3.10086C15.3384 3.16985 15.4202 3.24911 15.486 3.34588C15.562 3.45758 15.6104 3.5842 15.6104 3.72983C15.6104 3.87454 15.5651 3.99854 15.4909 4.10987C15.428 4.20403 15.3454 4.28329 15.2536 4.35806C15.1173 4.46901 14.908 4.45857 14.7857 4.33457C14.6635 4.21037 14.6754 4.0198 14.8117 3.90847C14.8592 3.87006 14.8996 3.83202 14.9242 3.7951C14.9369 3.77589 14.9453 3.75426 14.9453 3.72983C14.9453 3.70634 14.9361 3.68396 14.922 3.66308C14.8978 3.62746 14.857 3.58942 14.8117 3.5525C14.7211 3.47884 14.6389 3.39922 14.5744 3.30318ZM1.89968 2.93564C1.89968 2.79336 2.02634 2.67812 2.18231 2.67812H6.02415C6.18032 2.67812 6.30677 2.79336 6.30677 2.93564C6.30677 3.07774 6.18032 3.19298 6.02415 3.19298H2.1819C2.02593 3.19298 1.89968 3.07774 1.89968 2.93564ZM1.89968 5.40958C1.89968 5.2673 2.02634 5.15206 2.18231 5.15206H6.02415C6.18032 5.15206 6.30677 5.2673 6.30677 5.40958C6.30677 5.55168 6.18032 5.66692 6.02415 5.66692H2.1819C2.02593 5.66692 1.89968 5.55168 1.89968 5.40958ZM1.89968 7.8839C1.89968 7.7418 2.02634 7.62638 2.18231 7.62638H6.02415C6.18032 7.62638 6.30677 7.7418 6.30677 7.8839C6.30677 8.02599 6.18032 8.14141 6.02415 8.14141H2.1819C2.02593 8.14141 1.89968 8.02599 1.89968 7.8839ZM1.89968 4.17233C1.89968 4.03024 2.02634 3.91481 2.18231 3.91481H6.02415C6.18032 3.91481 6.30677 4.03024 6.30677 4.17233C6.30677 4.31443 6.18032 4.42985 6.02415 4.42985H2.1819C2.02593 4.42985 1.89968 4.31443 1.89968 4.17233ZM1.89968 6.64665C1.89968 6.50455 2.02634 6.38931 2.18231 6.38931H6.02415C6.18032 6.38931 6.30677 6.50455 6.30677 6.64665C6.30677 6.78892 6.18032 6.90417 6.02415 6.90417H2.1819C2.02593 6.90417 1.89968 6.78892 1.89968 6.64665Z" fill="#212121"/>
</g>
</svg>
