<svg width="19" height="19" viewBox="0 0 19 19" fill="none" xmlns="http://www.w3.org/2000/svg">
<path d="M11.8041 7.85014C11.5605 7.43516 11.1963 7.10097 10.7594 6.89533C10.7502 6.88949 10.7411 6.88489 10.7309 6.88135C10.4321 6.74559 10.1016 6.66803 9.75285 6.66803C9.40406 6.66803 9.07348 6.74559 8.77476 6.88135C8.76465 6.88473 8.75562 6.88949 8.74658 6.89502C8.30913 7.10097 7.94472 7.43547 7.70081 7.85106C7.69316 7.86135 7.68581 7.87164 7.68106 7.88377C7.48461 8.23133 7.37085 8.63202 7.37085 9.05928C7.37085 9.40898 7.44787 9.74041 7.58291 10.04C7.58628 10.0503 7.59103 10.0595 7.59669 10.0686C7.83157 10.5725 8.23579 10.98 8.73602 11.2183C8.7501 11.2288 8.76557 11.2363 8.78241 11.2407C9.07915 11.3744 9.40712 11.4504 9.75285 11.4504C10.0986 11.4504 10.4266 11.3742 10.7233 11.2407C10.7401 11.2363 10.7556 11.2288 10.7697 11.2183C11.2701 10.98 11.6741 10.5724 11.909 10.0686C11.9147 10.0595 11.9194 10.0505 11.9228 10.04C12.0577 9.74025 12.1349 9.40898 12.1349 9.05928C12.1349 8.63202 12.0212 8.23148 11.8248 7.88393C11.8199 7.87149 11.8122 7.86074 11.8041 7.85014ZM11.698 9.85698H11.1468C11.1762 9.63966 11.1921 9.4205 11.1973 9.1998H11.8479C11.8328 9.43079 11.7816 9.65195 11.698 9.85698ZM9.8928 11.1627V10.1376H10.8164C10.7594 10.4304 10.6792 10.7187 10.5757 11.0012C10.3638 11.0921 10.1335 11.1467 9.8928 11.1627ZM8.93001 11.0012C8.82666 10.7189 8.74628 10.4304 8.68932 10.1377H9.6129V11.1629C9.37221 11.1467 9.14192 11.0921 8.93001 11.0012ZM7.89496 8.07421H8.38829C8.34144 8.35265 8.31495 8.63463 8.30822 8.91906H7.65763C7.67784 8.61574 7.76037 8.32946 7.89496 8.07421ZM9.6129 6.95599V7.79362H8.72821C8.78088 7.56494 8.84886 7.33948 8.93017 7.11756C9.14192 7.02664 9.37221 6.97212 9.6129 6.95599ZM10.5757 7.11756C10.6568 7.33948 10.7248 7.56509 10.7775 7.79362H9.89264V6.95599C10.1335 6.97212 10.3638 7.02664 10.5757 7.11756ZM10.834 8.07421C10.8831 8.35235 10.9105 8.63447 10.9176 8.91906H9.89264V8.07421H10.834ZM9.6129 8.07421V8.91906H8.58796C8.595 8.63447 8.62241 8.35235 8.67156 8.07421H9.6129ZM7.65763 9.19965H8.30822C8.31342 9.42035 8.32935 9.63951 8.35874 9.85682H7.80753C7.72393 9.65195 7.67294 9.43079 7.65763 9.19965ZM8.58796 9.19965H9.6129V9.85682H8.64185C8.61092 9.63966 8.59347 9.4205 8.58796 9.19965ZM9.8928 9.85698V9.1998H10.9177C10.9122 9.42065 10.8949 9.63981 10.864 9.85698H9.8928ZM11.1973 8.91906C11.1906 8.63463 11.1641 8.35265 11.1173 8.07421H11.6104C11.7453 8.32946 11.8279 8.61558 11.8478 8.91906H11.1973ZM11.431 7.79362H11.0632C11.0283 7.63344 10.9862 7.47479 10.9378 7.31768C11.1274 7.44807 11.2929 7.60963 11.431 7.79362ZM8.56775 7.31768C8.51936 7.47479 8.47741 7.63359 8.44234 7.79362H8.07456C8.21267 7.60963 8.3785 7.44807 8.56775 7.31768ZM7.94901 10.1377H8.40391C8.44525 10.3615 8.50083 10.5826 8.5679 10.8012C8.31633 10.6281 8.10565 10.401 7.94901 10.1377ZM10.9378 10.801C11.005 10.5826 11.0604 10.3613 11.1018 10.1376H11.5565C11.3999 10.401 11.1892 10.6281 10.9378 10.801Z" fill="black"/>
<path d="M6.50189 7.03894C6.46055 7.10452 6.48015 7.19098 6.54553 7.23245C6.5688 7.24704 6.59453 7.2541 6.6201 7.2541C6.66649 7.2541 6.71181 7.23091 6.73861 7.18868C7.39531 6.14464 8.52055 5.52126 9.74884 5.52126C10.6514 5.52126 11.5028 5.85714 12.1618 6.46915L11.8908 6.74115C11.8551 6.77693 11.8414 6.8293 11.8551 6.87814C11.8689 6.92698 11.9074 6.96445 11.9566 6.97658L12.9864 7.23015C12.9975 7.23306 13.0086 7.23429 13.0197 7.23429C13.0564 7.23429 13.0921 7.21986 13.1186 7.19313C13.1532 7.15842 13.1673 7.1082 13.1556 7.06059L12.903 6.02654C12.8909 5.97724 12.8534 5.93853 12.8047 5.92486C12.7562 5.9112 12.7041 5.92502 12.6681 5.9608L12.3596 6.27057C11.6476 5.60572 10.7263 5.24036 9.74884 5.24036C8.42394 5.24051 7.21005 5.91273 6.50189 7.03894ZM12.6903 6.33569L12.8287 6.90256L12.264 6.76357L12.4608 6.56606C12.4608 6.56606 12.4608 6.56606 12.461 6.56606C12.4611 6.56606 12.461 6.56606 12.461 6.56591L12.6903 6.33569Z" fill="black"/>
<path d="M9.75199 12.945C11.0669 12.945 12.2759 12.2805 12.9859 11.1672C13.0277 11.1019 13.0086 11.015 12.9435 10.9732C12.8786 10.9314 12.7921 10.9506 12.7504 11.0157C12.092 12.0481 10.9712 12.6643 9.75199 12.6643C8.78798 12.6643 7.86425 12.2683 7.19559 11.5749L7.46799 11.3016C7.50366 11.2656 7.51729 11.2132 7.50366 11.1644C7.48988 11.1156 7.4513 11.0781 7.40215 11.0661L6.3723 10.8122C6.32499 10.8007 6.27476 10.8147 6.24016 10.8494C6.20556 10.884 6.19147 10.9343 6.20311 10.982L6.45575 12.016C6.46784 12.0653 6.50536 12.1042 6.55405 12.1178C6.56645 12.1214 6.579 12.1231 6.59156 12.1231C6.62831 12.1231 6.66398 12.1086 6.69062 12.0819L6.99792 11.7734C7.71863 12.5193 8.71372 12.945 9.75199 12.945ZM6.66827 11.7073L6.52985 11.1401L7.09454 11.2793L6.66827 11.7073Z" fill="black"/>
<mask id="mask0_675_1466" style="mask-type:luminance" maskUnits="userSpaceOnUse" x="0" y="4" width="6" height="9">
<path d="M0.937256 4.96008H5.77368V12.9807H0.937256V4.96008Z" fill="white"/>
</mask>
<g mask="url(#mask0_675_1466)">
<path d="M4.52825 8.8589C5.08084 8.47618 5.44403 7.83713 5.44403 7.11392C5.44403 5.94517 4.49701 4.99451 3.33288 4.99451C2.16891 4.99451 1.22159 5.94517 1.22159 7.11392C1.22159 7.84481 1.59213 8.49061 2.15467 8.87165C1.62397 9.24193 0.937256 10.2209 0.937256 12.8047C0.937256 12.8824 0.99988 12.9451 1.0772 12.9451H5.62776C5.70493 12.9451 5.76771 12.8824 5.76771 12.8047C5.76771 10.1467 5.01867 9.19616 4.52825 8.8589ZM1.50133 7.11392C1.50133 6.09998 2.32294 5.27525 3.33273 5.27525C4.34252 5.27525 5.16428 6.09998 5.16428 7.11392C5.16428 8.1277 4.34267 8.95258 3.33288 8.95258C2.32309 8.95258 1.50133 8.12755 1.50133 7.11392ZM1.21776 12.6643C1.24456 10.0035 2.03509 9.243 2.43426 9.02861C2.70726 9.15838 3.01119 9.23302 3.33273 9.23302C3.66254 9.23302 3.97351 9.15454 4.25172 9.01862C4.6561 9.22427 5.4601 9.97159 5.4872 12.6643H1.21776Z" fill="black"/>
</g>
<mask id="mask1_675_1466" style="mask-type:luminance" maskUnits="userSpaceOnUse" x="13" y="4" width="6" height="9">
<path d="M13.4216 4.96008H18.2865V12.9807H13.4216V4.96008Z" fill="white"/>
</mask>
<g mask="url(#mask1_675_1466)">
<path d="M17.044 8.8589C17.5965 8.47618 17.9598 7.83713 17.9598 7.11392C17.9598 5.94517 17.0126 4.99451 15.8487 4.99451C14.6845 4.99451 13.7374 5.94517 13.7374 7.11392C13.7374 7.84481 14.1079 8.49061 14.6703 8.87165C14.1394 9.24193 13.4529 10.2209 13.4529 12.8048C13.4529 12.8826 13.5157 12.9452 13.5928 12.9452H18.1434C18.2207 12.9452 18.2833 12.8826 18.2833 12.8048C18.2833 10.1467 17.5345 9.19616 17.044 8.8589ZM14.0171 7.11392C14.0171 6.09998 14.8387 5.27525 15.8485 5.27525C16.8583 5.27525 17.6799 6.09998 17.6799 7.11392C17.6799 8.1277 16.8583 8.95258 15.8485 8.95258C14.8387 8.95258 14.0171 8.12755 14.0171 7.11392ZM13.7334 12.6643C13.7602 10.0035 14.5509 9.243 14.9499 9.02861C15.2229 9.15838 15.527 9.23302 15.8485 9.23302C16.1782 9.23302 16.4893 9.15454 16.7675 9.01862C17.1719 9.22427 17.9757 9.97159 18.0028 12.6643H13.7334Z" fill="black"/>
</g>
<path d="M9.75139 4.04398V1.15805C9.75139 0.697309 9.37794 0.322266 8.91875 0.322266H6.04403C5.58499 0.322266 5.21155 0.697156 5.21155 1.15805V4.04398C5.21155 4.07516 5.21354 4.10726 5.21783 4.14151L4.87607 5.04563C4.85648 5.09739 4.86903 5.15575 4.90792 5.19476C4.93472 5.22148 4.97055 5.23592 5.00683 5.23592C5.02352 5.23592 5.04021 5.23285 5.05644 5.22671L5.9759 4.87654C5.9984 4.87854 6.02106 4.87961 6.04403 4.87961H8.91875C9.37794 4.87961 9.75139 4.50472 9.75139 4.04398ZM5.97498 4.59426C5.95262 4.59119 5.92935 4.59411 5.90791 4.60225L5.24784 4.85351L5.49221 4.20708C5.50109 4.18389 5.50338 4.15917 5.49956 4.13475C5.49466 4.10526 5.49144 4.07485 5.49144 4.04398V1.15805C5.49129 0.851965 5.73918 0.603011 6.04403 0.603011H8.91875C9.22361 0.603011 9.47165 0.851965 9.47165 1.15805V4.04398C9.47165 4.35007 9.22376 4.59918 8.91875 4.59918H6.04403C6.0206 4.59902 5.99779 4.59703 5.97498 4.59426Z" fill="black"/>
<path d="M8.46967 1.67151H6.19424C6.11707 1.67151 6.05444 1.73432 6.05444 1.81188C6.05444 1.88929 6.11707 1.9521 6.19424 1.9521H8.46967C8.54684 1.9521 8.60962 1.88929 8.60962 1.81188C8.60962 1.73432 8.54684 1.67151 8.46967 1.67151Z" fill="black"/>
<path d="M8.46967 2.67065H6.19424C6.11707 2.67065 6.05444 2.73362 6.05444 2.81103C6.05444 2.88859 6.11707 2.9514 6.19424 2.9514H8.46967C8.54684 2.9514 8.60962 2.88859 8.60962 2.81103C8.60962 2.73362 8.54684 2.67065 8.46967 2.67065Z" fill="black"/>
<mask id="mask2_675_1466" style="mask-type:luminance" maskUnits="userSpaceOnUse" x="8" y="13" width="6" height="6">
<path d="M8.39819 13.0593H13.3371V18.0105H8.39819V13.0593Z" fill="white"/>
</mask>
<g mask="url(#mask2_675_1466)">
<path d="M13.113 13.1021L12.1937 13.4521C12.171 13.4499 12.1485 13.449 12.1256 13.449H9.2507C8.79166 13.449 8.41821 13.8239 8.41821 14.2846V17.1706C8.41821 17.6313 8.79166 18.0063 9.2507 18.0063H12.1256C12.5846 18.0063 12.9581 17.6313 12.9581 17.1706V14.2845C12.9581 14.2528 12.9559 14.2209 12.9519 14.1871L13.2935 13.283C13.3131 13.2312 13.3004 13.173 13.2617 13.1339C13.2226 13.0947 13.1645 13.0824 13.113 13.1021ZM12.6774 14.1215C12.6685 14.1447 12.6661 14.1698 12.67 14.1942C12.6749 14.2237 12.6782 14.2538 12.6782 14.2846V17.1706C12.6782 17.4766 12.4303 17.7256 12.1254 17.7256H9.2507C8.946 17.7256 8.69795 17.4766 8.69795 17.1706V14.2845C8.69795 13.9784 8.94585 13.7296 9.2507 13.7296H12.1256C12.149 13.7296 12.172 13.7314 12.1946 13.7344C12.2171 13.7371 12.2403 13.7345 12.2617 13.7262L12.9218 13.475L12.6774 14.1215Z" fill="black"/>
</g>
<path d="M11.9697 16.3763H9.69439C9.61707 16.3763 9.55444 16.439 9.55444 16.5167C9.55444 16.5943 9.61707 16.6569 9.69439 16.6569H11.9697C12.047 16.6569 12.1096 16.5943 12.1096 16.5167C12.1096 16.439 12.047 16.3763 11.9697 16.3763Z" fill="black"/>
<path d="M11.9697 15.377H9.69439C9.61707 15.377 9.55444 15.4398 9.55444 15.5174C9.55444 15.5949 9.61707 15.6578 9.69439 15.6578H11.9697C12.047 15.6578 12.1096 15.5949 12.1096 15.5174C12.1096 15.4398 12.047 15.377 11.9697 15.377Z" fill="black"/>
</svg>
