<svg width="21" height="15" viewBox="0 0 21 15" fill="none" xmlns="http://www.w3.org/2000/svg">
<mask id="mask0_675_1493" style="mask-type:luminance" maskUnits="userSpaceOnUse" x="0" y="0" width="16" height="15">
<path d="M0.581787 0.892761H15.2104V14.8772H0.581787V0.892761Z" fill="white"/>
</mask>
<g mask="url(#mask0_675_1493)">
<path d="M15.0925 5.58253L8.60266 0.943313C8.53283 0.893407 8.43899 0.893407 8.36916 0.943313L1.87946 5.58253C1.82687 5.61996 1.79576 5.68048 1.79576 5.74489V8.56507C1.79576 8.59542 1.80253 8.62408 1.8147 8.64988C1.60893 8.75728 1.42126 8.89485 1.25522 9.06042C1.04405 9.271 0.878349 9.51631 0.762531 9.78945C0.642655 10.0724 0.581787 10.3728 0.581787 10.6824C0.581787 10.9921 0.642486 11.2925 0.762531 11.5754C0.878349 11.8486 1.04405 12.0939 1.25522 12.3045C1.41619 12.465 1.59744 12.5992 1.79576 12.7051V14.677C1.79576 14.7873 1.88554 14.8768 1.99629 14.8768H3.7662C3.87677 14.8768 3.96655 14.7873 3.96655 14.677V12.7051C4.16505 12.5992 4.34613 12.465 4.50709 12.3045C4.71827 12.0937 4.88397 11.8486 4.99979 11.5753C5.11983 11.2924 5.1807 10.9919 5.1807 10.6824C5.1807 10.3728 5.11983 10.0724 4.99979 9.78945C4.88397 9.51631 4.71827 9.271 4.50709 9.06025C4.34613 8.89974 4.16488 8.76554 3.96655 8.65966V7.10212H6.45402C6.56477 7.10212 6.65438 7.0126 6.65438 6.90233C6.65438 6.7919 6.56477 6.70237 6.45402 6.70237H3.7662C3.65545 6.70237 3.56567 6.7919 3.56567 6.90233V8.4919C3.34519 8.42311 3.11575 8.38855 2.88107 8.38855C2.64656 8.38855 2.41712 8.42311 2.19665 8.4919V5.84757L8.486 1.35183L14.7753 5.84773V14.477H13.4062V6.90233C13.4062 6.7919 13.3165 6.70237 13.2058 6.70237H10.6879C10.5773 6.70237 10.4875 6.7919 10.4875 6.90233C10.4875 7.01276 10.5773 7.10229 10.6879 7.10229H13.0054V14.677C13.0054 14.7874 13.0951 14.877 13.2058 14.877H14.9757C15.0864 14.877 15.1762 14.7874 15.1762 14.677V5.74506C15.1762 5.68048 15.1449 5.61996 15.0925 5.58253ZM2.19665 14.477V12.873C2.41712 12.9416 2.64656 12.9763 2.88107 12.9763C3.11575 12.9763 3.34519 12.9416 3.56567 12.873V14.477H2.19665ZM4.25686 9.31012C4.62426 9.67665 4.82665 10.1641 4.82665 10.6825C4.82665 11.2008 4.62426 11.6882 4.25686 12.0548C3.88928 12.4213 3.40082 12.6233 2.88107 12.6233C2.3615 12.6233 1.87303 12.4213 1.50546 12.0548C1.13805 11.6882 0.935667 11.2008 0.935667 10.6825C0.935667 10.1641 1.13805 9.67665 1.50546 9.31012C1.87303 8.94358 2.3615 8.74176 2.88107 8.74176C3.40082 8.74176 3.88945 8.94358 4.25686 9.31012Z" fill="#231F20"/>
</g>
<path d="M11.2009 11.7724H10.0456V9.26765C10.0456 9.15721 9.95581 9.06769 9.84523 9.06769H7.1339C7.02333 9.06769 6.93355 9.15721 6.93355 9.26765V11.7724H5.77841C5.66766 11.7724 5.57788 11.8619 5.57788 11.9723V14.677C5.57788 14.7875 5.66766 14.877 5.77841 14.877H11.2009C11.3116 14.877 11.4014 14.7875 11.4014 14.677V11.9723C11.4013 11.8619 11.3115 11.7724 11.2009 11.7724ZM9.61748 12.1723H10.0728V12.6913H9.61748V12.1723ZM8.71714 9.46761V9.98656H8.26182V9.46761H8.71714ZM7.33426 9.46761H7.8611V10.1865C7.8611 10.297 7.95072 10.3865 8.06146 10.3865H8.91767C9.02825 10.3865 9.11803 10.297 9.11803 10.1865V9.46761H9.6447V11.7724H7.33426V9.46761ZM7.1339 12.1723H7.36148V12.6913H6.90632V12.1723H7.1339ZM5.97859 12.1723H6.50544V12.8912C6.50544 13.0016 6.59505 13.0912 6.7058 13.0912H7.56201C7.67258 13.0912 7.76236 13.0016 7.76236 12.8912V12.1723H8.28904V14.4771H5.97859V12.1723ZM11.0004 14.4771H8.68992V12.1723H9.2166V12.8912C9.2166 13.0016 9.30638 13.0912 9.41713 13.0912H10.2732C10.3839 13.0912 10.4737 13.0016 10.4737 12.8912V12.1723H11.0004V14.4771Z" fill="#231F20"/>
<path d="M6.78848 6.13762C6.72558 6.19444 6.7053 6.28447 6.73759 6.36253L6.90312 6.76111C6.93558 6.83934 7.01386 6.88874 7.09857 6.88435L7.4325 6.86732L7.54747 6.98197L7.53039 7.31513C7.52617 7.3996 7.57554 7.47766 7.65399 7.51003L8.05352 7.67509C8.07821 7.68537 8.10424 7.69043 8.13011 7.69043C8.18557 7.69043 8.24001 7.66733 8.2789 7.62434L8.5031 7.37684H8.66558L8.88978 7.62434C8.94659 7.68723 9.03688 7.70746 9.11516 7.67509L9.51469 7.51003C9.59314 7.47766 9.64251 7.3996 9.63829 7.31513L9.62121 6.98197L9.73601 6.86732L10.0701 6.88435C10.1548 6.88874 10.2331 6.83934 10.2656 6.76111L10.4309 6.36253C10.4634 6.28447 10.4431 6.19444 10.3802 6.13762L10.1318 5.91406V5.75186L10.3802 5.5283C10.4431 5.47165 10.4634 5.38162 10.4309 5.30339L10.2656 4.90481C10.2331 4.82675 10.1548 4.77735 10.0701 4.78157L9.73601 4.79876L9.62121 4.68395L9.63829 4.35079C9.64251 4.26632 9.59314 4.18826 9.51469 4.15589L9.11516 3.99083C9.03688 3.95846 8.94659 3.97869 8.88978 4.04158L8.66558 4.28925H8.5031L8.2789 4.04158C8.22209 3.97869 8.1318 3.95846 8.05352 3.99083L7.65399 4.15589C7.57554 4.18826 7.52617 4.26632 7.53039 4.35079L7.54747 4.68395L7.4325 4.79876L7.09857 4.78157C7.01386 4.77735 6.93558 4.82675 6.90312 4.90481L6.73759 5.30339C6.7053 5.38162 6.72558 5.47165 6.78848 5.5283L7.03686 5.75186V5.91406L6.78848 6.13762ZM7.37146 5.51464L7.16214 5.32615L7.21929 5.18823L7.50114 5.20256C7.55778 5.20543 7.6129 5.18435 7.65298 5.14423L7.89391 4.90397C7.93398 4.86401 7.95529 4.80888 7.95241 4.7524L7.93804 4.47134L8.07618 4.41419L8.26521 4.62308C8.30325 4.66506 8.35718 4.689 8.41399 4.689H8.75469C8.81133 4.689 8.86543 4.66506 8.90347 4.62308L9.0925 4.41419L9.23064 4.47134L9.21627 4.7524C9.21339 4.80888 9.23453 4.86384 9.27477 4.90397L9.5157 5.14423C9.55578 5.18418 9.61106 5.20543 9.66754 5.20256L9.94939 5.18823L10.0065 5.32615L9.79722 5.51464C9.75512 5.55258 9.73111 5.60653 9.73111 5.66301V6.00291C9.73111 6.05939 9.75512 6.11334 9.79722 6.15128L10.0065 6.33994L9.94939 6.47769L9.66754 6.46336C9.61089 6.46049 9.55578 6.48157 9.5157 6.52169L9.27477 6.76195C9.2347 6.80191 9.21339 6.85704 9.21627 6.91352L9.23064 7.19458L9.0925 7.25173L8.90347 7.04284C8.86543 7.00086 8.8115 6.97691 8.75469 6.97691H8.41399C8.35735 6.97691 8.30325 7.00086 8.26521 7.04284L8.07618 7.25173L7.93804 7.19458L7.95241 6.91352C7.95546 6.85704 7.93415 6.80208 7.89408 6.76195L7.65314 6.52169C7.61307 6.48157 7.55778 6.46049 7.50114 6.46336L7.21946 6.47769L7.16214 6.33977L7.37163 6.15128C7.41373 6.11334 7.43774 6.05939 7.43774 6.00291V5.66301C7.43757 5.60653 7.41356 5.55258 7.37146 5.51464Z" fill="#231F20"/>
<path d="M8.57823 6.7375C9.07819 6.7375 9.48499 6.33185 9.48499 5.83296C9.48499 5.33424 9.07819 4.92859 8.57823 4.92859C8.07826 4.92859 7.67163 5.33424 7.67163 5.83296C7.67163 6.33185 8.07826 6.7375 8.57823 6.7375ZM8.57823 5.32834C8.8572 5.32834 9.08411 5.55477 9.08411 5.83296C9.08411 6.11115 8.8572 6.33758 8.57823 6.33758C8.29925 6.33758 8.07234 6.11115 8.07234 5.83296C8.07234 5.55477 8.29925 5.32834 8.57823 5.32834Z" fill="#231F20"/>
<path d="M2.93941 11.7191H2.81344C2.73009 11.7191 2.65045 11.681 2.58908 11.6117C2.52229 11.536 2.4856 11.434 2.4856 11.3246C2.4856 11.2273 2.40647 11.1484 2.30909 11.1484C2.2117 11.1484 2.13257 11.2273 2.13257 11.3246C2.13257 11.5198 2.20071 11.7044 2.32447 11.8444C2.38652 11.9147 2.45923 11.97 2.54072 12.0091C2.59195 12.0335 2.64521 12.0509 2.69999 12.0608V12.2187C2.69999 12.3158 2.77895 12.3947 2.87634 12.3947C2.9739 12.3947 3.05286 12.3158 3.05286 12.2187V12.0608C3.10747 12.0509 3.16073 12.0335 3.21213 12.0091C3.29362 11.97 3.36633 11.9147 3.42838 11.8444C3.55214 11.7044 3.62028 11.5198 3.62028 11.3246C3.62028 10.9958 3.43024 10.7031 3.14737 10.5966L2.73026 10.4392C2.66127 10.4131 2.60125 10.3627 2.55712 10.2932C2.51029 10.2199 2.4856 10.1324 2.4856 10.0405C2.4856 9.93092 2.52246 9.82891 2.58925 9.75338C2.65045 9.68408 2.73009 9.64581 2.81344 9.64581H2.93958C3.02276 9.64581 3.1024 9.68408 3.16377 9.75338C3.23056 9.82891 3.26725 9.93092 3.26725 10.0405C3.26725 10.1376 3.34638 10.2165 3.44377 10.2165C3.54115 10.2165 3.62028 10.1376 3.62028 10.0405C3.62028 9.8451 3.55214 9.66048 3.42855 9.52054C3.3665 9.4504 3.29362 9.39493 3.21213 9.35599C3.1609 9.33137 3.10764 9.31401 3.05286 9.30406V9.14642C3.05286 9.04913 2.9739 8.9704 2.87651 8.9704C2.77895 8.9704 2.69999 9.04913 2.69999 9.14642V9.30406C2.64538 9.31401 2.59212 9.33137 2.54072 9.35599C2.45923 9.39493 2.38652 9.4504 2.32447 9.52054C2.20071 9.66048 2.13274 9.8451 2.13274 10.0405C2.13274 10.3693 2.32261 10.6618 2.60548 10.7685L3.02259 10.9258C3.09175 10.9518 3.1516 11.0024 3.19573 11.0717C3.24256 11.1452 3.26725 11.2325 3.26725 11.3246C3.26725 11.434 3.23039 11.536 3.1636 11.6117C3.1024 11.681 3.02276 11.7191 2.93941 11.7191Z" fill="#231F20"/>
<mask id="mask1_675_1493" style="mask-type:luminance" maskUnits="userSpaceOnUse" x="15" y="6" width="6" height="6">
<path d="M15.4685 6.28796H20.2203V11.2084H15.4685V6.28796Z" fill="white"/>
</mask>
<g mask="url(#mask1_675_1493)">
<path d="M20.0388 7.74487C19.9202 7.46179 19.7495 7.20788 19.5315 6.98988C19.3134 6.77187 19.0591 6.60108 18.7756 6.48205C18.4861 6.36049 18.1789 6.29895 17.8627 6.29895C17.8582 6.29895 17.8536 6.29895 17.849 6.29895C17.5308 6.3008 17.2221 6.36504 16.9315 6.49031C16.651 6.61103 16.3995 6.783 16.1838 7.00117C15.9682 7.21951 15.7995 7.47292 15.6823 7.75465C15.5611 8.0465 15.5009 8.35554 15.5038 8.67318C15.5092 9.26834 15.7371 9.83282 16.1461 10.2654L15.8705 10.8756C15.8299 10.9653 15.8492 11.068 15.9192 11.1373C15.9635 11.1808 16.0216 11.2049 16.0829 11.2049C16.1172 11.2049 16.1505 11.1975 16.1819 11.183L16.9216 10.8402C16.933 10.8351 16.9457 10.8323 16.9583 10.8323C16.9697 10.8323 16.981 10.8345 16.9915 10.8387C17.2669 10.9479 17.5581 11.0036 17.8565 11.0043H17.8619C18.1738 11.0043 18.4782 10.9424 18.7668 10.8205C19.0463 10.7023 19.2984 10.5334 19.516 10.3184C19.7339 10.1033 19.9057 9.85356 20.0269 9.57604C20.1529 9.28756 20.218 8.98273 20.2203 8.66981C20.2227 8.34913 20.1617 8.03807 20.0388 7.74487ZM19.8293 8.66678C19.8213 9.72239 18.9203 10.6141 17.8617 10.6141H17.8573C17.6083 10.6136 17.3655 10.5671 17.1359 10.476C17.0794 10.4536 17.0197 10.4423 16.9585 10.4423C16.889 10.4423 16.8194 10.4575 16.7571 10.4865L16.4007 10.6515L16.5126 10.4034C16.5725 10.2708 16.546 10.1174 16.4448 10.0127C16.0947 9.64989 15.8994 9.17308 15.8948 8.66981C15.8901 8.14546 16.0916 7.65012 16.4624 7.27498C16.8329 6.90001 17.3261 6.69196 17.8512 6.68909C17.8512 6.68909 17.8585 6.68909 17.8621 6.68909C18.3884 6.68909 18.8829 6.89377 19.2547 7.26537C19.6293 7.63983 19.8333 8.13754 19.8293 8.66678Z" fill="#231F20"/>
</g>
<path d="M18.282 7.71316C18.282 7.73541 18.2798 7.7575 18.2756 7.77942C18.2712 7.80117 18.2648 7.82241 18.2562 7.84298C18.2475 7.86372 18.2371 7.88328 18.2247 7.90182C18.2124 7.92037 18.1982 7.9374 18.1824 7.95324C18.1665 7.96892 18.1495 7.98309 18.1309 7.9954C18.1123 8.00787 18.0927 8.01832 18.072 8.02675C18.0514 8.03535 18.0301 8.04176 18.0081 8.04614C17.9861 8.05053 17.9642 8.05272 17.9417 8.05272C17.9194 8.05272 17.8972 8.05053 17.8754 8.04614C17.8534 8.04176 17.8321 8.03535 17.8115 8.02675C17.7909 8.01832 17.7712 8.00787 17.7526 7.9954C17.734 7.98309 17.7168 7.96892 17.7011 7.95324C17.6852 7.9374 17.6711 7.92037 17.6588 7.90182C17.6463 7.88328 17.6358 7.86372 17.6274 7.84298C17.6187 7.82241 17.6123 7.80117 17.6079 7.77942C17.6035 7.7575 17.6013 7.73541 17.6013 7.71316C17.6013 7.6909 17.6035 7.66882 17.6079 7.6469C17.6123 7.62498 17.6187 7.60374 17.6274 7.58317C17.6358 7.5626 17.6463 7.54304 17.6588 7.52449C17.6711 7.50595 17.6852 7.48875 17.7011 7.47307C17.7168 7.45722 17.734 7.44323 17.7526 7.43075C17.7712 7.41844 17.7909 7.40799 17.8115 7.39939C17.8321 7.39096 17.8534 7.38456 17.8754 7.38017C17.8972 7.37579 17.9194 7.3736 17.9417 7.3736C17.9642 7.3736 17.9861 7.37579 18.0081 7.38017C18.0301 7.38456 18.0514 7.39096 18.072 7.39939C18.0927 7.40799 18.1123 7.41844 18.1309 7.43075C18.1495 7.44323 18.1665 7.45722 18.1824 7.47307C18.1982 7.48875 18.2124 7.50595 18.2247 7.52449C18.2371 7.54304 18.2475 7.5626 18.2562 7.58317C18.2648 7.60374 18.2712 7.62498 18.2756 7.6469C18.2798 7.66882 18.282 7.6909 18.282 7.71316Z" fill="#231F20"/>
<path d="M18.4096 9.66441C18.3934 9.66239 18.3768 9.6666 18.3628 9.6752C18.3168 9.70353 18.2596 9.72814 18.2033 9.74854C18.0993 9.78614 17.9942 9.69543 18.0155 9.58719L18.2422 8.43262C18.2633 8.32488 18.1808 8.22473 18.0708 8.22473H17.3552C17.3353 8.22473 17.319 8.23198 17.3062 8.24227C17.2619 8.2775 17.2629 8.34478 17.305 8.38254C17.331 8.40615 17.3552 8.40615 17.3552 8.40615L17.4661 8.41441C17.5382 8.4198 17.5892 8.48724 17.5747 8.55789C17.5109 8.8671 17.3696 9.61164 17.3831 9.69442C17.396 9.77232 17.4276 9.98576 17.8308 10.0154C18.2265 10.0446 18.4275 9.82003 18.4463 9.73168C18.4569 9.68127 18.4326 9.66711 18.4096 9.66441Z" fill="#231F20"/>
</svg>
