<svg width="19" height="18" viewBox="0 0 19 18" fill="none" xmlns="http://www.w3.org/2000/svg">
<path d="M4.64819 10.7191C4.64819 12.5187 6.15408 13.9771 8.01229 13.9771C9.87035 13.9771 11.3767 12.5187 11.3767 10.7191C11.3767 8.91941 9.87035 7.46106 8.01229 7.46106C6.15408 7.46106 4.64819 8.91941 4.64819 10.7191ZM11.0963 10.7191C11.0963 12.3659 9.71287 13.7056 8.01229 13.7056C6.31185 13.7056 4.92855 12.3659 4.92855 10.7191C4.92855 9.07234 6.31185 7.73256 8.01229 7.73256C9.71287 7.73256 11.0963 9.07234 11.0963 10.7191Z" fill="black"/>
<path d="M18.1082 3.93152H17.5131C17.4292 3.55974 17.2779 3.21295 17.0726 2.90276L17.4939 2.49495C17.6562 2.33783 17.6396 2.06744 17.4573 1.89077L17.1269 1.57038C17.0284 1.47527 16.9019 1.42667 16.7808 1.42667C16.6773 1.42667 16.5776 1.46228 16.5028 1.53491L16.0815 1.94314C15.7612 1.74426 15.4031 1.59762 15.0192 1.51661V0.939948C15.0192 0.717605 14.8098 0.53772 14.5517 0.53772H14.085C13.8267 0.53772 13.6172 0.717605 13.6172 0.939948V1.51661C13.2336 1.59762 12.8755 1.74426 12.5552 1.94314L12.1341 1.53491C12.0592 1.46228 11.9594 1.42667 11.8557 1.42667C11.7347 1.42667 11.6083 1.47527 11.5099 1.57038L11.1795 1.89077C10.9968 2.06744 10.9803 2.33783 11.1426 2.49495L11.5643 2.90276C11.3589 3.21295 11.2076 3.55974 11.1237 3.93152H10.5284C10.2989 3.93152 10.113 4.13403 10.113 4.38416V4.83639C10.113 5.08611 10.2989 5.28904 10.5284 5.28904H11.1237C11.2076 5.66082 11.3589 6.00732 11.5643 6.31765L11.1426 6.7256C10.9803 6.88272 10.9968 7.15311 11.1795 7.33006L11.5099 7.65017C11.6083 7.74528 11.7347 7.79388 11.8557 7.79388C11.9594 7.79388 12.0592 7.75827 12.1341 7.68578L12.5552 7.27713C12.8755 7.47643 13.2336 7.62279 13.6172 7.70408V8.2806C13.6172 8.50253 13.8267 8.68283 14.085 8.68283H14.5517C14.8098 8.68283 15.0192 8.50253 15.0192 8.2806V7.70408C15.4031 7.62279 15.7612 7.47643 16.0815 7.27713L16.5028 7.68578C16.5776 7.75827 16.6773 7.79388 16.7808 7.79388C16.9019 7.79388 17.0284 7.74528 17.1269 7.65017L17.4573 7.33006C17.6396 7.15311 17.6562 6.88272 17.4939 6.7256L17.0726 6.31765C17.2779 6.00732 17.4292 5.66082 17.5131 5.28904H18.1082C18.3375 5.28904 18.5236 5.08611 18.5236 4.83639V4.38416C18.5236 4.13403 18.3375 3.93152 18.1082 3.93152ZM18.2433 4.83639C18.2433 4.9329 18.1801 5.01753 18.1082 5.01753H17.2874L17.2391 5.23108C17.1638 5.56487 17.0284 5.8812 16.8366 6.17114L16.7148 6.35522L16.8744 6.50955L17.2957 6.9175C17.3473 6.96764 17.3306 7.06875 17.259 7.13817L16.9289 7.45785C16.8865 7.49891 16.8326 7.52238 16.7808 7.52238C16.7579 7.52238 16.7253 7.51735 16.7011 7.49389L16.2798 7.08537L16.1203 6.93035L15.9299 7.04878C15.6316 7.23439 15.3049 7.36568 14.9594 7.43872L14.7389 7.48551V8.2806C14.7389 8.35016 14.6513 8.41133 14.5517 8.41133H14.085C13.9852 8.41133 13.8975 8.35016 13.8975 8.2806V7.48565L13.6772 7.43872C13.3316 7.36568 13.0051 7.23439 12.7067 7.04878L12.5164 6.93035L12.3567 7.08537L11.9359 7.49361C11.9115 7.51735 11.8788 7.52238 11.8557 7.52238C11.8042 7.52238 11.7503 7.49891 11.7081 7.45813L11.3778 7.13817C11.306 7.06861 11.2893 6.96764 11.3407 6.91764L11.7623 6.50969L11.9221 6.35522L11.8002 6.17114C11.6084 5.8812 11.473 5.56487 11.3976 5.23108L11.3494 5.01753H10.5284C10.4566 5.01753 10.3934 4.9329 10.3934 4.83639V4.38416C10.3934 4.28766 10.4566 4.20302 10.5284 4.20302H11.3494L11.3976 3.98948C11.473 3.65526 11.6085 3.33893 11.8002 3.04927L11.9221 2.86505L11.7623 2.71073L11.341 2.30305C11.3139 2.27694 11.31 2.24132 11.3115 2.21618C11.3143 2.16926 11.3384 2.12079 11.3779 2.08253L11.7079 1.7627C11.7503 1.72164 11.8042 1.69817 11.8557 1.69817C11.8788 1.69817 11.9114 1.7032 11.9358 1.72681L12.3569 2.1349L12.5164 2.28965L12.7065 2.17163C13.006 1.98574 13.3325 1.85474 13.6769 1.78183L13.8975 1.73533V0.939948C13.8975 0.870396 13.9852 0.809223 14.085 0.809223H14.5517C14.6513 0.809223 14.7389 0.870396 14.7389 0.939948V1.73533L14.9595 1.78183C15.304 1.85474 15.6307 1.98574 15.9302 2.17163L16.1203 2.28965L16.2798 2.13504L16.7011 1.72681C16.7254 1.7032 16.7579 1.69817 16.7808 1.69817C16.8324 1.69817 16.8865 1.72164 16.9286 1.76228L17.2589 2.08267C17.3306 2.15208 17.3473 2.25291 17.2957 2.30291L16.8744 2.71073L16.7148 2.86519L16.8366 3.04927C17.0283 3.33893 17.1637 3.65526 17.2391 3.98948L17.2874 4.20302H18.1082C18.1801 4.20302 18.2433 4.28766 18.2433 4.38416V4.83639Z" fill="black"/>
<path d="M14.3176 2.70978C13.2338 2.70978 12.3552 3.5606 12.3552 4.6103C12.3552 5.65987 13.2338 6.51083 14.3176 6.51083C15.4015 6.51083 16.2802 5.65987 16.2802 4.6103C16.2802 3.5606 15.4015 2.70978 14.3176 2.70978ZM14.3176 6.23933C13.3901 6.23933 12.6356 5.50861 12.6356 4.6103C12.6356 3.712 13.3901 2.98128 14.3176 2.98128C15.2451 2.98128 15.9998 3.712 15.9998 4.6103C15.9998 5.50861 15.2451 6.23933 14.3176 6.23933Z" fill="black"/>
<path d="M11.3246 15.2389L11.165 15.0839L10.9748 15.2023C10.425 15.5442 9.82422 15.7854 9.18953 15.9193L8.96888 15.9658V17.2028C8.96888 17.4453 8.72415 17.6425 8.42346 17.6425H7.5987C7.29787 17.6425 7.05299 17.4453 7.05299 17.2028V15.9658L6.83234 15.9193C6.19837 15.7855 5.59801 15.5443 5.04783 15.2023L4.85775 15.084L4.69796 15.2389L3.95396 15.9604C3.85878 16.0524 3.74196 16.0717 3.66063 16.0717C3.51295 16.0717 3.36239 16.0082 3.24803 15.8974L2.66425 15.3319C2.55681 15.228 2.49306 15.0962 2.48484 14.9611C2.47735 14.8381 2.51801 14.727 2.59935 14.6483L3.503 13.7731L3.38128 13.5892C3.02897 13.0567 2.78005 12.4748 2.64132 11.8599L2.59315 11.6464H1.31555C1.06563 11.6464 0.862141 11.4095 0.862141 11.1184V10.3198C0.862141 10.0287 1.06563 9.7915 1.31555 9.7915H2.59301L2.64132 9.57796C2.78005 8.96275 3.02911 8.38105 3.38128 7.84894L3.503 7.665L3.3435 7.51054L2.59935 6.79002C2.51801 6.71125 2.47735 6.60022 2.48484 6.47717C2.49306 6.34212 2.55681 6.21042 2.66439 6.10637L3.24774 5.54116C3.36254 5.43013 3.51324 5.36644 3.66092 5.36644C3.74225 5.36644 3.85892 5.38585 3.95382 5.47761L4.69796 6.19911L4.85761 6.35399L5.04783 6.23584C5.59844 5.89367 6.19881 5.65261 6.83234 5.51881L7.05299 5.4723V4.23545C7.05299 3.993 7.29787 3.7958 7.5987 3.7958H8.42346C8.72415 3.7958 8.96888 3.993 8.96888 4.23545V5.4723L9.18953 5.51881C9.82379 5.65261 10.4246 5.8938 10.9749 6.23584L11.1442 6.341L11.2123 6.27508C11.1547 6.17467 11.1035 6.07118 11.0568 5.96629C10.5087 5.63585 9.90008 5.39088 9.24924 5.25359V4.23545C9.24924 3.84244 8.87976 3.52429 8.42346 3.52429H7.5987C7.14269 3.52429 6.77264 3.84244 6.77264 4.23545V5.25359C6.09483 5.39661 5.46245 5.65568 4.8964 6.00735L4.15211 5.28571C4.02001 5.15778 3.84392 5.09508 3.66092 5.09494C3.44705 5.09494 3.22366 5.18083 3.04973 5.34898L2.4661 5.91434C2.14334 6.22662 2.11421 6.70427 2.40106 6.98205L3.1452 7.70257C2.7825 8.25061 2.51556 8.86345 2.36745 9.52H1.31555C0.910452 9.52 0.581787 9.87782 0.581787 10.3198V11.1184C0.581787 11.56 0.910452 11.9179 1.31555 11.9179H2.36745C2.51556 12.5748 2.7825 13.1874 3.1452 13.7357L2.40106 14.4562C2.11421 14.734 2.14334 15.2117 2.4661 15.5239L3.04973 16.0894C3.22351 16.2575 3.4469 16.3432 3.66063 16.3432C3.84378 16.3432 4.02001 16.2804 4.15211 16.1524L4.8964 15.4307C5.46245 15.7826 6.09483 16.0415 6.77264 16.1846V17.2028C6.77264 17.5954 7.14269 17.914 7.5987 17.914H8.42346C8.87976 17.914 9.24924 17.5954 9.24924 17.2028V16.1846C9.92748 16.0415 10.5603 15.7826 11.1262 15.4307L11.8264 16.1098C11.7896 15.9853 11.7916 15.8541 11.8375 15.7364L11.3246 15.2389Z" fill="black"/>
<path d="M15.4434 11.1184V10.3198C15.4434 9.8778 15.1145 9.51998 14.7091 9.51998H13.6578C13.516 8.88996 13.2631 8.30059 12.9221 7.76973C12.8135 7.72448 12.7067 7.67476 12.6028 7.6189L12.5349 7.68468L12.6438 7.84906C12.9968 8.38215 13.2457 8.96371 13.3839 9.5778L13.4319 9.79149H14.7091C14.9595 9.79149 15.1631 10.0286 15.1631 10.3198V10.8369C15.3181 10.9427 15.4202 11.1096 15.4202 11.299V11.3149C15.4348 11.2519 15.4434 11.1863 15.4434 11.1184Z" fill="black"/>
<path d="M17.5043 13.5925H17.048C16.9837 13.3076 16.8678 13.0417 16.7106 12.804L17.0335 12.4911C17.1578 12.3706 17.1451 12.1633 17.0053 12.0279L16.7522 11.7825C16.6767 11.7094 16.5798 11.6722 16.487 11.6722C16.4074 11.6722 16.3308 11.6994 16.2736 11.7551L15.9507 12.0678C15.7049 11.9156 15.4305 11.8032 15.1363 11.7411V11.299C15.1363 11.1283 14.9758 10.9906 14.7778 10.9906H14.42C14.2218 10.9906 14.0613 11.1283 14.0613 11.299V11.7411C13.7671 11.8032 13.4927 11.9156 13.2471 12.0678L12.9243 11.7551C12.8668 11.6994 12.7904 11.6722 12.7109 11.6722C12.6182 11.6722 12.5213 11.7094 12.4456 11.7825L12.1926 12.0279C12.0523 12.1633 12.0397 12.3706 12.1639 12.4911L12.4872 12.804C12.33 13.0417 12.2139 13.3076 12.1496 13.5925H11.6932C11.5171 13.5925 11.3748 13.7475 11.3748 13.9396V14.2862C11.3748 14.4777 11.5171 14.6333 11.6932 14.6333H12.1496C12.2139 14.9182 12.33 15.1838 12.4872 15.4219L12.1639 15.7347C12.0397 15.8552 12.0523 16.0624 12.1926 16.1982L12.4456 16.4433C12.5213 16.5163 12.6182 16.5536 12.7108 16.5536C12.7904 16.5536 12.8668 16.5264 12.9243 16.4708L13.2471 16.1577C13.4927 16.3102 13.7671 16.4224 14.0613 16.4846V16.9268C14.0613 17.0969 14.2218 17.2352 14.42 17.2352H14.7778C14.9758 17.2352 15.1363 17.0969 15.1363 16.9268V16.4846C15.4305 16.4224 15.7049 16.3102 15.9507 16.1577L16.2736 16.4708C16.3308 16.5263 16.4074 16.5536 16.487 16.5536C16.5798 16.5536 16.6767 16.5163 16.7522 16.4433L17.0053 16.1982C17.1451 16.0624 17.1578 15.8552 17.0335 15.7347L16.7106 15.4219C16.8678 15.1838 16.9837 14.9182 17.048 14.6333H17.5043C17.6803 14.6333 17.8229 14.4777 17.8229 14.2862V13.9396C17.8229 13.7475 17.6803 13.5925 17.5043 13.5925ZM17.6827 14.2862C17.6827 14.4027 17.6027 14.4975 17.5043 14.4975H16.9352L16.9112 14.6042C16.8515 14.8685 16.7443 15.1189 16.5923 15.3488L16.5317 15.4407L16.6113 15.5179L16.9344 15.8306C17.0037 15.8979 16.9912 16.0198 16.9063 16.1022L16.6533 16.3472C16.6069 16.392 16.5463 16.4179 16.487 16.4179C16.4552 16.4179 16.4094 16.4103 16.3728 16.3749L16.0499 16.0617L15.97 15.9844L15.875 16.0434C15.6382 16.1904 15.3796 16.2941 15.1063 16.3521L14.9961 16.3754V16.9268C14.9961 17.0221 14.8981 17.0994 14.7778 17.0994H14.42C14.2996 17.0994 14.2015 17.0221 14.2015 16.9268V16.3754L14.0913 16.3521C13.8179 16.2941 13.5593 16.1902 13.3228 16.0434L13.2278 15.9842L13.1479 16.0617L12.8254 16.3747C12.7885 16.4103 12.7428 16.4179 12.7108 16.4179C12.6516 16.4179 12.5911 16.392 12.5446 16.3474L12.2917 16.1022C12.2064 16.0198 12.1936 15.8979 12.263 15.8307L12.5864 15.518L12.6662 15.4407L12.6053 15.3488C12.4533 15.1186 12.3462 14.8682 12.2866 14.6044L12.2627 14.4975H11.6932C11.5948 14.4975 11.5149 14.4027 11.5149 14.2862V13.9396C11.5149 13.8231 11.5948 13.7283 11.6932 13.7283H12.2627L12.2866 13.6214C12.3462 13.3572 12.4533 13.1068 12.6052 12.8773L12.6662 12.7853L12.5864 12.708L12.2631 12.3953C12.2317 12.3649 12.2161 12.3213 12.219 12.2731C12.2223 12.2189 12.2481 12.166 12.2918 12.1238L12.5445 11.8786C12.5911 11.8336 12.6516 11.8079 12.7109 11.8079C12.7428 11.8079 12.7883 11.8153 12.8253 11.8511L13.148 12.1639L13.2278 12.2411L13.3227 12.1822C13.56 12.035 13.8185 11.9312 14.0912 11.8738L14.2015 11.8505V11.299C14.2015 11.2037 14.2996 11.1264 14.42 11.1264H14.7778C14.8981 11.1264 14.9961 11.2037 14.9961 11.299V11.8505L15.1065 11.8738C15.379 11.9312 15.6376 12.035 15.8751 12.1822L15.97 12.241L16.0498 12.1639L16.3727 11.8511C16.4096 11.8153 16.4552 11.8079 16.487 11.8079C16.5462 11.8079 16.6067 11.8336 16.6532 11.8784L16.9063 12.1238C16.9912 12.2061 17.0037 12.3279 16.9344 12.3952L16.6113 12.708L16.5316 12.7854L16.5924 12.8773C16.7442 13.1065 16.8513 13.357 16.9112 13.6216L16.9352 13.7283H17.5043C17.6027 13.7283 17.6827 13.8231 17.6827 13.9396V14.2862Z" fill="black"/>
<path d="M14.6007 12.7554C13.8265 12.7554 13.199 13.363 13.199 14.1129C13.199 14.8626 13.8265 15.4704 14.6007 15.4704C15.3747 15.4704 16.0025 14.8626 16.0025 14.1129C16.0025 13.363 15.3747 12.7554 14.6007 12.7554ZM14.6007 15.3347C13.9051 15.3347 13.3392 14.7866 13.3392 14.1129C13.3392 13.4392 13.9051 12.8911 14.6007 12.8911C15.2964 12.8911 15.8623 13.4392 15.8623 14.1129C15.8623 14.7866 15.2964 15.3347 14.6007 15.3347Z" fill="black"/>
</svg>
