<svg width="21" height="22" viewBox="0 0 21 22" fill="none" xmlns="http://www.w3.org/2000/svg">
<mask id="mask0_675_660" style="mask-type:luminance" maskUnits="userSpaceOnUse" x="15" y="6" width="4" height="16">
<path d="M15.3901 7.85047C15.3901 7.02723 16.0575 6.35986 16.8807 6.35986C17.704 6.35986 18.3713 7.02723 18.3713 7.85047V19.9949C18.3713 20.8182 17.704 21.4855 16.8807 21.4855C16.0575 21.4855 15.3901 20.8182 15.3901 19.9949V7.85047Z" fill="white"/>
</mask>
<g mask="url(#mask0_675_660)">
<path d="M17.5983 6.37866H16.1615C15.7664 6.37866 15.4431 6.68085 15.4431 7.05016V21.1501C15.4431 21.3346 15.6048 21.4857 15.8025 21.4857H17.9574C18.1548 21.4857 18.3165 21.3346 18.3165 21.1501V7.05016C18.3165 6.68085 17.9932 6.37866 17.5983 6.37866ZM17.5983 20.0958C17.5983 20.4925 17.2767 20.8142 16.8799 20.8142C16.4832 20.8142 16.1615 20.4925 16.1615 20.0958V7.76857C16.1615 7.3718 16.4832 7.05016 16.8799 7.05016C17.2767 7.05016 17.5983 7.3718 17.5983 7.76857V20.0958Z" fill="#5A5A5A"/>
</g>
<mask id="mask1_675_660" style="mask-type:luminance" maskUnits="userSpaceOnUse" x="11" y="9" width="4" height="13">
<path d="M11.8428 11.1324C11.8428 10.3287 12.4942 9.67725 13.2979 9.67725C14.1015 9.67725 14.753 10.3287 14.753 11.1324V20.0305C14.753 20.8341 14.1015 21.4856 13.2979 21.4856C12.4942 21.4856 11.8428 20.8341 11.8428 20.0305V11.1324Z" fill="white"/>
</mask>
<g mask="url(#mask1_675_660)">
<path d="M14.0082 9.7356H12.5717C12.1766 9.7356 11.8533 10.0378 11.8533 10.4071V21.15C11.8533 21.3346 12.0149 21.4856 12.2123 21.4856H14.3673C14.565 21.4856 14.7266 21.3346 14.7266 21.15V10.4071C14.7266 10.0378 14.4033 9.7356 14.0082 9.7356ZM14.0082 20.0959C14.0082 20.4926 13.6866 20.8141 13.2899 20.8141C12.8933 20.8141 12.5717 20.4926 12.5717 20.0959V11.1254C12.5717 10.7287 12.8933 10.4071 13.2899 10.4071C13.6866 10.4071 14.0082 10.7287 14.0082 11.1254V20.0959Z" fill="#5A5A5A"/>
</g>
<mask id="mask2_675_660" style="mask-type:luminance" maskUnits="userSpaceOnUse" x="8" y="13" width="4" height="9">
<path d="M8.21655 14.5515C8.21655 13.7283 8.88392 13.0609 9.70716 13.0609C10.5304 13.0609 11.1978 13.7283 11.1978 14.5515V19.995C11.1978 20.8182 10.5304 21.4856 9.70716 21.4856C8.88392 21.4856 8.21655 20.8182 8.21655 19.995V14.5515Z" fill="white"/>
</mask>
<g mask="url(#mask2_675_660)">
<path d="M10.414 13.0927H8.97744C8.58233 13.0927 8.25903 13.3948 8.25903 13.7641V21.1499C8.25903 21.3344 8.42068 21.4855 8.61838 21.4855H10.7733C10.9707 21.4855 11.1324 21.3344 11.1324 21.1499V13.7641C11.1324 13.3948 10.8091 13.0927 10.414 13.0927ZM10.414 20.0957C10.414 20.4924 10.0924 20.814 9.69571 20.814C9.29902 20.814 8.97744 20.4924 8.97744 20.0957V14.4824C8.97744 14.0857 9.29902 13.7641 9.69571 13.7641C10.0924 13.7641 10.414 14.0857 10.414 14.4824V20.0957Z" fill="#5A5A5A"/>
</g>
<mask id="mask3_675_660" style="mask-type:luminance" maskUnits="userSpaceOnUse" x="4" y="16" width="4" height="6">
<path d="M4.59888 17.9352C4.59888 17.1119 5.26624 16.4446 6.08948 16.4446C6.91272 16.4446 7.58008 17.1119 7.58008 17.9352V19.995C7.58008 20.8182 6.91272 21.4856 6.08948 21.4856C5.26624 21.4856 4.59888 20.8182 4.59888 19.995V17.9352Z" fill="white"/>
</mask>
<g mask="url(#mask3_675_660)">
<path d="M6.82242 16.45H5.38561C4.9905 16.45 4.66748 16.7519 4.66748 17.1212V21.1499C4.66748 21.3344 4.82913 21.4855 5.02654 21.4855H7.18149C7.37918 21.4855 7.54055 21.3344 7.54055 21.1499V17.1212C7.54055 16.7519 7.21753 16.45 6.82242 16.45ZM6.82242 20.0956C6.82242 20.4924 6.50078 20.814 6.10402 20.814C5.70725 20.814 5.38561 20.4924 5.38561 20.0956V17.8396C5.38561 17.4428 5.70725 17.1212 6.10402 17.1212C6.50078 17.1212 6.82242 17.4428 6.82242 17.8396V20.0956Z" fill="#5A5A5A"/>
</g>
<path d="M6.46582 10.743C6.46582 11.0554 6.49541 11.354 6.55467 11.6432C6.60423 11.8851 6.87829 11.9846 7.08075 11.8432C7.21356 11.7505 7.27454 11.5782 7.24356 11.4192C7.20199 11.2059 7.18423 10.9786 7.18423 10.743C7.18423 8.78094 8.6761 7.1524 10.6581 6.79369C10.8149 6.7653 10.9102 6.59571 10.8967 6.43687C10.882 6.26421 10.7432 6.09665 10.5724 6.12583C8.23629 6.52499 6.46582 8.4441 6.46582 10.743Z" fill="#5A5A5A"/>
<path d="M3.44674 14.9056C3.50081 15.0399 3.64444 15.107 3.77004 15.107C3.86986 15.107 3.95866 15.0563 4.05141 15.0194C6.21928 14.1565 10.9829 11.7607 13.008 6.84065C13.0275 6.79314 13.0977 6.7982 13.1085 6.84843C13.1443 6.99953 13.2879 7.11719 13.4495 7.11719C13.5107 7.11719 13.5718 7.09903 13.6272 7.07313C13.7677 7.00748 13.8389 6.8525 13.8089 6.69734L13.4676 5.30433C13.4315 5.18667 13.342 5.08611 13.2161 5.05242C13.0905 5.01898 12.9646 5.05242 12.875 5.11954L11.7255 6.11007C11.5818 6.22747 11.5641 6.44569 11.7077 6.57994C11.8333 6.71419 12.0668 6.73103 12.2104 6.59679C12.2622 6.55279 12.3368 6.60755 12.3106 6.67027C10.3282 11.4231 5.63998 13.6768 3.62642 14.4692C3.44674 14.5363 3.35719 14.7211 3.44674 14.9056Z" fill="#5A5A5A"/>
<path d="M14.3255 7.39199C14.2449 7.4919 14.2423 7.63969 14.3408 7.72206C14.4822 7.84032 14.7252 7.74862 14.7252 7.56428V7.21593C14.7252 7.17499 14.704 7.13608 14.6717 7.11101C14.6019 7.05695 14.5033 7.09217 14.4653 7.17188C14.4284 7.24949 14.3809 7.32345 14.3255 7.39199Z" fill="#5A5A5A"/>
<path d="M19.6197 15.8135C19.3991 15.604 19.0349 15.7604 19.0349 16.0647C19.0349 16.1606 19.0747 16.2522 19.1448 16.3177L19.6635 16.8025C19.8251 16.9536 19.7711 17.2558 19.5556 17.4572L19.168 17.8195C19.0831 17.8989 19.0349 18.0099 19.0349 18.126V18.7199C19.0349 18.7912 19.1124 18.8317 19.1548 18.7743C19.1585 18.7694 19.1628 18.7644 19.1672 18.7603L20.0586 17.9271C20.5613 17.4572 20.5973 16.752 20.1662 16.3324L19.6197 15.8135Z" fill="#5A5A5A"/>
<path d="M3.77177 15.7785C3.56869 15.7785 3.35688 15.8138 3.20849 15.9524L2.8199 16.3155C2.371 16.7353 2.42507 17.4403 2.92776 17.9101L3.82556 18.7496C3.87058 18.7913 3.95144 18.7504 3.95144 18.6889V18.0599C3.95144 17.9644 3.91183 17.8731 3.84206 17.8079L3.43073 17.4234C3.21501 17.2221 3.17924 16.9199 3.32287 16.7856L4.47215 15.7114C4.53861 15.6493 4.46902 15.569 4.38397 15.6012C4.318 15.6263 4.25585 15.6495 4.19751 15.6727C4.18911 15.676 4.18099 15.68 4.17311 15.6845C4.03435 15.7626 3.91145 15.7785 3.77177 15.7785Z" fill="#5A5A5A"/>
</svg>
