<svg width="15" height="21" viewBox="0 0 15 21" fill="none" xmlns="http://www.w3.org/2000/svg">
<path fill-rule="evenodd" clip-rule="evenodd" d="M3.61257 20.2788C3.61257 20.2788 3.59668 20.2788 3.5909 20.2788C1.60687 20.2672 0 18.6532 0 16.6662C0 15.4893 0.563561 14.4431 1.43636 13.7834V2.1726C1.43636 0.973227 2.40959 0 3.60824 0C4.80689 0 5.78011 0.973227 5.78011 2.1726V13.7769C6.65725 14.4358 7.22514 15.4856 7.22514 16.6662C7.22514 18.6293 5.65656 20.2282 3.70578 20.2781L3.61257 20.2788ZM3.61257 18.8338C4.80905 18.8338 5.78011 17.8627 5.78011 16.6662C5.78011 15.8642 5.34371 15.1641 4.69562 14.7891C4.47236 14.6598 4.33509 14.4214 4.33509 14.1634V2.1726C4.33509 1.77088 4.00923 1.44503 3.60824 1.44503C3.20652 1.44503 2.88139 1.77088 2.88139 2.1726V14.1685C2.88139 14.4257 2.74483 14.6634 2.52302 14.7928C1.87854 15.1685 1.44503 15.8671 1.44503 16.6662C1.44503 17.8584 2.40958 18.8273 3.60029 18.8338H3.60318" fill="#5A5A5A"/>
<path fill-rule="evenodd" clip-rule="evenodd" d="M7.95201 4.32638L13.7278 4.3271C14.1266 4.3271 14.4503 4.00341 14.4503 3.60458C14.4503 3.20576 14.1266 2.88207 13.7278 2.88207L7.95273 2.88135C7.5539 2.88135 7.23021 3.20503 7.22949 3.60386C7.22949 4.00269 7.55318 4.32638 7.95201 4.32638Z" fill="#5A5A5A"/>
<path fill-rule="evenodd" clip-rule="evenodd" d="M7.95201 7.20711L12.4439 7.20784C12.8427 7.20784 13.1671 6.88415 13.1671 6.48532C13.1671 6.08649 12.8434 5.76281 12.4446 5.76281L7.95273 5.76208C7.5539 5.76208 7.23021 6.08577 7.22949 6.48388C7.22949 6.8827 7.55318 7.20711 7.95201 7.20711Z" fill="#5A5A5A"/>
<path fill-rule="evenodd" clip-rule="evenodd" d="M7.95201 10.0871L13.7278 10.0878C14.1266 10.0878 14.4503 9.76415 14.4503 9.36533C14.4503 8.9665 14.1266 8.64281 13.7278 8.64281L7.95273 8.64209C7.5539 8.64209 7.23021 8.96578 7.22949 9.3646C7.22949 9.76343 7.55318 10.0871 7.95201 10.0871Z" fill="#5A5A5A"/>
<path fill-rule="evenodd" clip-rule="evenodd" d="M7.95201 12.9677L12.4439 12.9685C12.8427 12.9685 13.1671 12.6448 13.1671 12.2459C13.1671 11.8471 12.8434 11.5234 12.4446 11.5234L7.95273 11.5227C7.5539 11.5227 7.23021 11.8464 7.22949 12.2452C7.22949 12.644 7.55318 12.9677 7.95201 12.9677Z" fill="#5A5A5A"/>
<path d="M3.61314 17.3374C4.01217 17.3374 4.33565 17.0139 4.33565 16.6148C4.33565 16.2158 4.01217 15.8923 3.61314 15.8923C3.21411 15.8923 2.89062 16.2158 2.89062 16.6148C2.89062 17.0139 3.21411 17.3374 3.61314 17.3374Z" fill="#5A5A5A"/>
</svg>
