<svg width="9" height="11" viewBox="0 0 9 11" fill="none" xmlns="http://www.w3.org/2000/svg">
<path fill-rule="evenodd" clip-rule="evenodd" d="M4.36523 5.21557C3.8545 5.21557 3.44055 4.81545 3.44055 4.32177C3.44055 3.82809 3.8545 3.42797 4.36523 3.42797C4.87597 3.42797 5.28992 3.82809 5.28992 4.32177C5.28992 4.81545 4.87597 5.21557 4.36523 5.21557ZM4.36523 2.8321C3.51422 2.8321 2.8241 3.49888 2.8241 4.32177C2.8241 5.14466 3.51422 5.81144 4.36523 5.81144C5.21625 5.81144 5.90637 5.14466 5.90637 4.32177C5.90637 3.49888 5.21625 2.8321 4.36523 2.8321ZM4.36523 9.38664C3.85265 9.38932 1.28296 5.56743 1.28296 4.32177C1.28296 2.67658 2.66289 1.34243 4.36523 1.34243C6.06757 1.34243 7.44751 2.67658 7.44751 4.32177C7.44751 5.55075 4.8698 9.38932 4.36523 9.38664ZM4.36523 0.746567C2.32261 0.746567 0.666504 2.34736 0.666504 4.32177C0.666504 5.8168 3.75032 10.2837 4.36523 10.2804C4.97059 10.2837 8.06396 5.79654 8.06396 4.32177C8.06396 2.34736 6.40786 0.746567 4.36523 0.746567Z" fill="#212121"/>
</svg>
